<svg width="0" height="0" class="hidden">
    <symbol xmlns="http://www.w3.org/2000/svg" viewBox="0 0 32 32" id="wa">
        <path d="M4 28.0153L5.72747 21.5826C4.75414 19.821 4.23677 17.8492 4.23677 15.851C4.23677 9.30439 9.56815 3.97595 16.1184 3.97595C22.6686 3.97595 28 9.30439 28 15.851C28 22.3976 22.6686 27.726 16.1184 27.726C14.1542 27.726 12.2075 27.2265 10.4713 26.2888L4.00878 28.024L4 28.0153ZM10.787 23.8787L11.1904 24.1241C12.681 25.018 14.3822 25.4825 16.1096 25.4825C21.4235 25.4825 25.7464 21.1619 25.7464 15.851C25.7464 10.5401 21.4235 6.21951 16.1096 6.21951C10.7958 6.21951 6.47279 10.5401 6.47279 15.851C6.47279 17.6038 6.96382 19.3303 7.88454 20.8464L8.13009 21.2583L7.1655 24.8515L10.7783 23.8875L10.787 23.8787Z"></path>
        <path fill-rule="evenodd" clip-rule="evenodd" d="M20.5378 17.4986C20.0467 17.2094 19.4154 16.8764 18.8367 17.113C18.3983 17.297 18.1089 17.9894 17.8283 18.3399C17.6792 18.524 17.5038 18.5503 17.2846 18.4626C15.6273 17.8053 14.3559 16.6923 13.4439 15.1674C13.2861 14.9308 13.3124 14.7468 13.5053 14.5277C13.7859 14.2034 14.1279 13.8353 14.2068 13.3971C14.2857 12.9589 14.0753 12.4419 13.8911 12.0562C13.6631 11.5567 13.4001 10.8468 12.9003 10.5664C12.4443 10.3035 11.8393 10.4525 11.4271 10.7855C10.7169 11.3639 10.3749 12.2666 10.3924 13.1517C10.3924 13.4059 10.4275 13.66 10.4889 13.9054C10.6292 14.4926 10.901 15.0447 11.2079 15.5705C11.4359 15.9649 11.6902 16.3505 11.962 16.7186C12.8476 17.9193 13.9525 18.9709 15.2327 19.7509C15.8728 20.1453 16.5568 20.4871 17.2671 20.7237C18.065 20.9866 18.7753 21.2583 19.6434 21.1006C20.5466 20.9253 21.441 20.3732 21.7918 19.4968C21.897 19.2426 21.9496 18.9534 21.8882 18.6817C21.7654 18.1208 21.0025 17.7878 20.5466 17.5161L20.5378 17.4986Z"></path>
    </symbol>
    <symbol xmlns="http://www.w3.org/2000/svg" viewBox="0 0 32 32" id="tg">
        <path d="M5.48098 14.7209C5.48098 14.7209 16.0961 10.3703 19.7702 8.83758C21.184 8.2229 25.9683 6.25912 25.9683 6.25912C25.9683 6.25912 28.1728 5.39697 27.9891 7.48848C27.9252 8.35063 27.438 11.3522 26.9428 14.6012C26.208 19.1993 25.4092 24.2285 25.4092 24.2285C25.4092 24.2285 25.2894 25.6415 24.2431 25.881C23.1968 26.1284 21.4795 25.0268 21.176 24.7793C20.9284 24.5957 16.5753 21.8337 14.9779 20.4846C14.5466 20.1174 14.0593 19.3829 15.0418 18.5208C17.2462 16.5011 19.89 13.9865 21.4795 12.39C22.2143 11.6555 22.9492 9.93921 19.882 12.0227C15.529 15.0243 11.2318 17.8502 11.2318 17.8502C11.2318 17.8502 10.2494 18.4649 8.41232 17.9141C6.57524 17.3633 4.42665 16.6288 4.42665 16.6288C4.42665 16.6288 2.95699 15.7108 5.47298 14.7289L5.48098 14.7209Z"></path>
    </symbol>
    <symbol xmlns="http://www.w3.org/2000/svg" viewBox="0 0 24 24" id="home">
        <path d="M20 17.0001V11.4521V11.4514C20 10.9176 20 10.6505 19.9351 10.402C19.8775 10.1816 19.7827 9.97268 19.6548 9.78425C19.5104 9.57162 19.3096 9.39574 18.9074 9.04387L14.1074 4.84387C13.3608 4.19059 12.9875 3.86399 12.5674 3.73975C12.1972 3.63027 11.8028 3.63027 11.4326 3.73975C11.0127 3.86392 10.6398 4.19023 9.894 4.8428L9.89278 4.84387L5.09277 9.04387L5.09182 9.04471C4.69032 9.39602 4.48944 9.57179 4.34521 9.78425C4.2173 9.97268 4.12255 10.1816 4.06497 10.402C4 10.6506 4 10.9178 4 11.4521V17.0001C4 17.932 4 18.3978 4.15224 18.7654C4.35523 19.2554 4.74481 19.6448 5.23486 19.8478C5.60241 20 6.06835 20 7.00023 20C7.93211 20 8.39782 20 8.76537 19.8478C9.25542 19.6448 9.64467 19.2554 9.84766 18.7654C9.9999 18.3978 10 17.9319 10 17V16C10 14.8954 10.8954 14 12 14C13.1046 14 14 14.8954 14 16V17C14 17.9319 14 18.3978 14.1522 18.7654C14.3552 19.2554 14.7448 19.6448 15.2349 19.8478C15.6024 20 16.0683 20 17.0002 20C17.9321 20 18.3978 20 18.7654 19.8478C19.2554 19.6448 19.6447 19.2554 19.8477 18.7654C19.9999 18.3978 20 17.932 20 17.0001Z" stroke-width="1.5" stroke-linecap="round" stroke-linejoin="round"></path>
    </symbol>
    <symbol fill="none" xmlns="http://www.w3.org/2000/svg" viewBox="0 0 24 24" id="arrow-right">
        <path d="M10 8L14 12L10 16" stroke="#202020" stroke-linecap="round" stroke-linejoin="round"></path>
    </symbol>
    <symbol  xmlns="http://www.w3.org/2000/svg" viewBox="0 0 24 24" id="Chevron_Left">
        <path d="M15 19L8 12L15 5" stroke-width="1.5" stroke-linecap="round" stroke-linejoin="round"></path>
    </symbol>
    <symbol  xmlns="http://www.w3.org/2000/svg" viewBox="0 0 24 24" id="Chevron_Right">
        <path d="M9 5L16 12L9 19" stroke-width="1.5" stroke-linecap="round" stroke-linejoin="round"></path>
    </symbol>
    <symbol xmlns="http://www.w3.org/2000/svg" viewBox="0 0 24 24" id="File">
        <g id="File / File_Document">
            <g id="Vector">
                <path fill-rule="evenodd" clip-rule="evenodd" d="M9 17H15H9Z" fill="white"></path>
                <path fill-rule="evenodd" clip-rule="evenodd" d="M9 14H15H9Z" fill="white"></path>
                <path d="M9 17H15M9 14H15M18.9996 9H14.5996C14.0396 9 13.7598 8.99998 13.5459 8.89099C13.3577 8.79512 13.2049 8.64218 13.109 8.45401C13 8.2401 13 7.96005 13 7.4V3M19 17.8V9.65399C19 9.19048 19.0002 8.95872 18.9502 8.73932C18.9059 8.54475 18.8328 8.35788 18.7332 8.18499C18.6208 7.99002 18.4632 7.81997 18.1483 7.47986L14.9502 4.02588C14.6002 3.64789 14.425 3.45888 14.2168 3.32343C14.0322 3.20337 13.8286 3.11464 13.6151 3.06077C13.3743 3 13.1172 3 12.6021 3H8.2002C7.08009 3 6.51962 3 6.0918 3.21799C5.71547 3.40973 5.40973 3.71572 5.21799 4.09204C5 4.51986 5 5.07991 5 6.20001V17.8C5 18.9201 5 19.4801 5.21799 19.908C5.40973 20.2843 5.71547 20.5902 6.0918 20.782C6.51962 21 7.08009 21 8.2002 21H15.8002C16.9203 21 17.48 21 17.9078 20.782C18.2841 20.5902 18.5905 20.2843 18.7822 19.908C19.0002 19.4801 19 18.9201 19 17.8Z" stroke="white" stroke-width="1.5" stroke-linecap="round" stroke-linejoin="round"></path>
            </g>
        </g>
    </symbol>
    <symbol fill="none" xmlns="http://www.w3.org/2000/svg" viewBox="0 0 300 71" id="sotrans">
        <g clip-path="url(#clip0_12_1343)">
            <path d="M32.6885 6.09249C31.5614 8.82312 29.6792 10.6638 28.6386 10.3303C27.5907 9.99497 27.7196 7.45412 28.8467 4.72718C29.9738 2.00024 31.8524 0.155869 32.8985 0.491209C33.9427 0.824707 33.8156 3.36187 32.6885 6.09065" fill="#070B0B"></path>
            <path d="M31.9979 5.93956C31.0512 8.12665 29.7068 9.60988 28.8928 9.36114C28.0842 9.1124 28.2537 7.09851 29.2095 5.01462C30.1654 2.93072 31.5006 1.3443 32.3128 1.59304C33.125 1.84178 32.9445 3.75248 31.9979 5.93956Z" fill="#EB5A0A"></path>
            <path d="M55.7486 65.8549C55.686 65.6117 55.4613 65.4532 55.2109 65.4661C53.8867 65.5288 52.487 65.4219 51.1757 65.1437C51.1462 65.1382 51.1186 65.1289 51.0891 65.1179C49.5034 64.5025 45.5824 63.8134 42.061 53.8545C39.6392 46.91 35.814 44.6456 34.4345 44.2328C34.1527 44.1481 34.0072 43.8496 34.0883 43.5677C34.7863 41.1226 34.6205 38.4455 33.5873 36.0354C32.4749 33.653 30.4767 31.9984 29.9205 30.8598C29.3661 29.7192 28.7915 29.1259 29.2538 27.0273C29.8468 24.3925 36.4862 12.7477 34.6887 9.19163C31.311 2.47377 10.2584 10.7688 12.5071 16.5433C13.9731 20.5324 26.9203 16.7515 26.9203 16.7515C26.2555 19.6296 24.7287 22.2054 22.5481 24.1824L22.5297 24.1769C22.4616 24.2414 22.3953 24.3059 22.3271 24.3704C21.9293 24.6523 21.526 24.9305 21.1171 25.2014L21.1411 25.2069C19.5866 26.2461 16.1426 27.8601 16.1298 27.8657C12.3579 29.7266 8.00781 32.3264 5.79223 37.4947C5.01503 39.4625 4.68168 41.5354 5.01503 43.6064C5.56938 47.332 7.26376 50.2247 10.7059 52.2957C11.7631 52.9812 12.9178 53.5763 14.0781 54.0793C14.196 54.1309 14.2899 54.2249 14.3433 54.3428C15.4465 56.7731 17.5387 58.7243 20.2405 59.5737C20.408 59.6253 20.537 59.7525 20.5904 59.9201C20.8998 60.8874 20.7082 64.2501 13.2309 64.8212C10.4112 65.0368 8.40193 64.1856 6.93777 63.6936C6.27292 63.4707 5.54912 63.5223 4.92294 63.8355C2.71473 64.9355 1.1327 66.9365 0.193427 68.4252C-0.324093 69.2452 0.257887 70.0282 1.22663 70.0282L31.9261 70.5478C33.7273 70.5478 34.8507 68.4455 31.3975 66.7946C29.9407 66.0981 25.4783 63.7894 25.3659 59.0247C25.2554 57.6962 25.6882 56.3659 26.5557 55.2327C26.5759 55.2051 26.5999 55.1793 26.6238 55.1553C27.8467 53.943 29.7142 53.5431 31.473 54.1585C33.138 54.7813 34.5819 55.8131 35.6924 57.0568C39.6926 61.8198 43.7996 70.6215 50.9086 70.2088C56.0544 69.7961 56.0249 66.9365 55.7486 65.8567V65.8549Z" fill="black"></path>
            <path d="M53.9916 67.2128C52.9916 66.0263 50.4242 66.0668 48.8698 65.444C47.3136 64.8212 44.7591 62.542 41.2065 53.7421C37.8767 45.3531 33.2098 44.8335 33.2098 44.8335C33.6536 42.0402 33.4326 39.0387 32.3221 36.345C31.322 34.0658 29.4361 32.2011 27.1045 31.1656L30.1028 32.3043C28.7712 30.9611 28.215 29.1996 28.5484 27.44C28.5742 27.2005 28.7455 26.668 29.3403 25.1461C29.9352 23.6242 35.4953 12.7219 34.0864 9.68358C31.2723 3.38582 11.7962 11.9923 13.5955 16.0882C15.2844 19.7622 28.344 16.0882 28.344 16.0882C28.344 16.0882 27.4434 21.2326 23.9533 24.2746C23.852 24.3612 21.8298 26.0729 18.9954 27.4382C15.4428 29.1978 9.97474 31.7976 6.97643 37.1815C4.30964 42.0458 5.55832 47.4057 9.00232 50.1989C10.3339 51.2381 12.2235 52.1852 13.7779 53.0162C13.6674 52.5998 13.6674 52.0838 13.6674 51.6693V51.0465C13.6674 50.7351 13.7779 50.3224 13.7779 50.011V50.116C13.8884 49.3882 14.1112 48.6641 14.3322 48.045C13.8884 50.6338 14.5551 53.2207 15.9971 55.3949C17.2182 57.0531 19.0231 58.4258 20.9145 59.2531C20.9145 59.2531 21.9661 60.9906 20.2975 63.0045C19.0912 64.4601 18.2053 65.2192 13.3101 65.6467C10.693 65.8752 9.87713 65.6946 6.7278 64.6923C6.33736 64.5688 5.39625 64.5872 5.02238 64.7531C3.43667 65.4588 2.21561 66.6601 1.46972 68.1507C1.33159 68.4252 1.52865 68.7514 1.83438 68.7514C1.83438 68.7514 31.7143 69.271 31.9298 69.271C32.3257 69.271 34.3203 69.2286 29.9536 66.719C26.4286 64.6812 24.7674 61.606 24.6569 58.6046C24.6569 55.4999 25.7674 53.8416 27.5428 52.9093C28.9867 52.2884 30.5411 52.2884 31.9832 52.9093C38.9798 56.4304 40.7939 68.7901 51.4188 69.9988C53.7946 70.2696 54.8149 68.1931 53.988 67.211L53.9916 67.2128Z" fill="#EB5A0A"></path>
            <path d="M26.1321 10.4519C26.1321 9.71674 26.808 9.19347 27.4821 9.19347C28.2703 9.19347 28.832 9.71674 28.832 10.4519C28.832 11.1871 28.2685 11.7104 27.4821 11.7104C26.6956 11.7104 26.1321 11.1871 26.1321 10.4519Z" fill="#070B0B"></path>
            <path d="M15.964 40.229C8.85497 38.6776 6.71859 37.0285 6.71859 37.0285L6.94512 36.6821C6.94512 36.6821 5.50674 35.689 5.05368 36.1994C4.45881 36.8682 1.39236 42.5082 4.99474 47.4351C6.65597 49.7088 9.63401 51.2049 12.7465 51.0999C12.7465 51.0999 11.4665 48.0837 12.31 45.1799C12.8294 43.3908 14.3009 41.6772 15.9658 40.2272" fill="#1D1D1B"></path>
            <path d="M23.9975 41.0968C23.9975 41.0968 27.9001 30.8966 24.0933 30.5299C20.4817 30.2259 20.8445 39.2764 20.8445 39.2764C20.7598 38.4712 19.0176 28.7353 24.0896 29.5479C29.4066 30.3973 23.9975 41.0987 23.9975 41.0987" fill="#1D1D1B"></path>
            <path d="M11.949 50.0184C11.949 50.0184 5.46991 50.1989 3.95418 43.3226C3.31695 40.4317 4.55826 37.9166 4.96896 37.1373C5.05 36.9825 5.24522 36.9327 5.39071 37.0285C6.31525 37.6329 10.1644 39.5325 15.2052 40.4243C15.2052 40.4243 12.6047 41.8117 11.7299 44.5387C10.8588 47.2564 11.9472 50.0165 11.9472 50.0165L11.949 50.0184Z" fill="#FFE9C0"></path>
            <path d="M50.6158 70.2309C55.1126 70.2309 58.758 66.5839 58.758 62.0851C58.758 57.5863 55.1126 53.9393 50.6158 53.9393C46.119 53.9393 42.4736 57.5863 42.4736 62.0851C42.4736 66.5839 46.119 70.2309 50.6158 70.2309Z" fill="#1D1D1B"></path>
            <path d="M50.6158 66.9217C53.2858 66.9217 55.4503 64.7563 55.4503 62.0851C55.4503 59.4139 53.2858 57.2484 50.6158 57.2484C47.9458 57.2484 45.7813 59.4139 45.7813 62.0851C45.7813 64.7563 47.9458 66.9217 50.6158 66.9217Z" fill="#EB5A0A"></path>
            <path d="M48.7262 59.6474H50.741C51.2236 59.6474 51.6158 59.7911 51.916 60.0804C52.2162 60.3697 52.3654 60.7456 52.3654 61.2099C52.3654 61.4973 52.2917 61.7663 52.1463 62.0151C52.0008 62.2638 51.7503 62.4462 51.3967 62.5623L52.4907 64.5707H51.439L50.4703 62.7429H49.6415V64.5707H48.728V59.6474H48.7262ZM49.6397 60.4415V61.9764H50.3506C51.0707 61.9764 51.4317 61.7184 51.4317 61.2025C51.4317 60.6866 51.113 60.4434 50.4777 60.4434H49.6415L49.6397 60.4415Z" fill="#1D1D1B"></path>
            <path d="M22.7673 42.2097C20.688 42.6519 17.1022 40.6767 17.8573 40.498C17.8573 40.498 15.0081 40.3082 12.8865 41.0434C11.8478 41.4027 10.9951 42.1121 10.7151 42.9246C10.3376 43.9841 10.7298 45.2738 11.9933 45.7363C13.2567 46.1988 14.2807 45.6387 15.045 44.9404C15.6417 44.395 16.1518 43.973 17.0046 43.7077C19.0838 43.4424 21.0674 42.9154 22.7691 42.2097" fill="#EB5A0A"></path>
            <path d="M23.2829 42.5359C20.9163 43.0241 18.8684 42.9246 16.3913 43.1218C14.1315 44.1923 13.2714 45.7529 11.8146 44.9809C9.85872 43.9454 11.0577 41.9923 12.9602 41.259C14.6656 40.603 17.3526 40.3248 18.2127 40.1295C18.2127 40.1295 14.9676 39.9213 12.5531 40.7302C11.3708 41.1263 10.4002 41.9094 10.0816 42.8049C9.6506 43.973 10.0981 45.3955 11.5365 45.9058C12.9749 46.4162 14.1407 45.799 15.01 45.0288C15.6896 44.4281 16.2697 43.962 17.2403 43.669C19.6069 43.3779 21.3455 43.3152 23.2829 42.5359Z" fill="#1D1D1B"></path>
            <path d="M36.4898 7.40622C34.9133 10.2419 32.7751 12.1305 31.5375 11.6072C30.2998 11.0802 30.6369 8.24825 32.101 5.41076C33.5652 2.57879 35.8158 0.690202 37.0534 1.21348C38.291 1.84362 38.0663 4.57241 36.4898 7.40806" fill="#070B0B"></path>
            <path d="M36.2651 6.77791C35.0275 9.19346 33.2263 10.767 32.3257 10.4519C31.4233 10.1368 31.7621 7.82815 33.0016 5.41259C34.2392 2.99888 36.0404 1.42352 36.941 1.73859C37.8416 2.05367 37.5046 4.46738 36.2651 6.77791Z" fill="#EB5A0A"></path>
            <path d="M62.0196 44.5811L36.9005 41.0139C36.8324 41.6054 36.72 42.1913 36.5579 42.7643C36.5137 42.9173 36.5432 43.0739 36.6187 43.1992L62.0196 44.5811Z" fill="#1D1D1B"></path>
            <path d="M54.7172 38.8434L36.2504 35.7922C36.5266 36.5311 36.7329 37.2902 36.8489 38.0585L54.7172 38.8434Z" fill="#1D1D1B"></path>
            <path d="M32.4215 30.1559C32.6867 30.7013 33.2871 31.3665 33.9611 32.1753L58.559 34.1911L32.2686 29.8077C32.3165 29.9256 32.3662 30.0417 32.4215 30.1559Z" fill="#1D1D1B"></path>
            <path d="M71.2393 38.2464L77.0904 34.8894C78.3298 38.0511 80.7591 40.0927 85.0742 40.0927C89.3893 40.0927 90.6288 38.3902 90.6288 36.4942C90.6288 33.9644 88.299 32.9916 83.1404 31.5323C77.8344 30.0251 72.6776 27.8362 72.6776 21.367C72.6776 14.8979 78.1328 11.2497 84.0833 11.2497C90.0339 11.2497 94.1501 14.1204 96.4799 18.8852L90.7282 22.1446C89.4888 19.5669 87.6047 17.7667 84.0833 17.7667C81.2066 17.7667 79.5214 19.226 79.5214 21.1717C79.5214 23.263 80.8604 24.3814 86.1166 25.9384C91.6196 27.6409 97.4726 29.441 97.4726 36.3947C97.4726 42.7662 92.2661 46.6576 84.8771 46.6576C77.4882 46.6576 73.1252 43.3023 71.2411 38.2428L71.2393 38.2464Z" fill="#1D1D1B"></path>
            <path d="M102.333 28.9564C102.333 18.9865 110.317 11.2516 120.332 11.2516C130.347 11.2516 138.383 18.9847 138.383 28.9564C138.383 38.9282 130.349 46.6613 120.332 46.6613C110.315 46.6613 102.333 38.8784 102.333 28.9564ZM131.541 28.9564C131.541 22.3897 126.631 17.7704 120.334 17.7704C114.037 17.7704 109.127 22.3915 109.127 28.9564C109.127 35.5214 114.035 40.0945 120.334 40.0945C126.632 40.0945 131.541 35.4734 131.541 28.9564Z" fill="#1D1D1B"></path>
            <path d="M166.402 18.3527H157.03V45.9795H150.186V18.3527H140.863V11.9333H166.4V18.3527H166.402Z" fill="#1D1D1B"></path>
            <path d="M184.503 34.1616H179.296V45.9795H172.452V11.9333H186.337C192.733 11.9333 197.89 16.991 197.89 23.2169C197.89 27.4971 195.162 31.3388 191.195 33.139L198.881 45.9795H191.492L184.501 34.1616H184.503ZM179.296 28.2765H186.337C188.915 28.2765 191.048 26.0397 191.048 23.2188C191.048 20.3979 188.915 18.209 186.337 18.209H179.296V28.2765Z" fill="#1D1D1B"></path>
            <path d="M225.365 39.8513H211.53L209.447 45.9795H202.058L214.206 11.9333H222.685L234.883 45.9795H227.444L225.361 39.8513H225.365ZM223.232 33.5775L218.471 19.6664L213.71 33.5775H223.23H223.232Z" fill="#1D1D1B"></path>
            <path d="M267.418 11.9333V45.9795H262.212L247.336 25.1627V45.9795H240.492V11.9333H245.699L260.574 32.7004V11.9333H267.418Z" fill="#1D1D1B"></path>
            <path d="M273.768 38.2464L279.62 34.8894C280.859 38.0511 283.288 40.0927 287.603 40.0927C291.919 40.0927 293.158 38.3902 293.158 36.4942C293.158 33.9644 290.828 32.9916 285.67 31.5323C280.364 30.0251 275.207 27.8362 275.207 21.367C275.207 14.8979 280.662 11.2497 286.613 11.2497C292.563 11.2497 296.679 14.1204 299.009 18.8852L293.257 22.1446C292.018 19.5669 290.134 17.7667 286.613 17.7667C283.736 17.7667 282.051 19.226 282.051 21.1717C282.051 23.263 283.39 24.3814 288.646 25.9384C294.149 27.6409 300.002 29.441 300.002 36.3947C300.002 42.7662 294.795 46.6576 287.406 46.6576C280.017 46.6576 275.654 43.3023 273.77 38.2428L273.768 38.2464Z" fill="#1D1D1B"></path>
            <path d="M81.5123 56.9757H74.9135V70.0559H73.4696V55.6141H81.5123V56.9757Z" fill="#1D1D1B"></path>
            <path d="M95.7414 60.1523C95.7414 62.7318 93.8021 64.6923 91.2034 64.6923H87.4905V70.0559H86.0485V55.6141H91.2034C93.8021 55.6141 95.7414 57.5543 95.7414 60.1541V60.1523ZM94.2975 60.1523C94.2975 58.295 92.9991 56.9757 91.2053 56.9757H87.4924V63.3306H91.2053C92.9991 63.3306 94.2975 61.9893 94.2975 60.1541V60.1523Z" fill="#1D1D1B"></path>
            <path d="M109.974 55.6123L105.169 66.8978C104.199 69.188 102.777 70.1996 100.57 70.054V68.7329C102.117 68.8987 103.066 68.3202 103.725 66.7725L104.014 66.0907L99.0454 55.6104H100.53L104.696 64.4822L108.49 55.6104H109.976L109.974 55.6123Z" fill="#1D1D1B"></path>
            <path d="M124.616 70.0559H123.174V56.9757H115.75V70.0559H114.308V55.6141H124.618V70.0559H124.616Z" fill="#1D1D1B"></path>
            <path d="M140.703 70.0559H139.259V56.9757H131.837V70.0559H130.393V55.6141H140.705V70.0559H140.703Z" fill="#1D1D1B"></path>
            <path d="M154.748 66.5071H147.902L146.562 70.0559H145.037L150.584 55.6141H152.068L157.616 70.0559H156.091L154.75 66.5071H154.748ZM154.232 65.1455L151.324 57.4087L148.416 65.1455H154.232Z" fill="#1D1D1B"></path>
            <path d="M177.786 70.0559L171.023 63.0616V70.0559H169.581V55.6141H171.023V62.2159L177.581 55.6141H179.478L172.55 62.6286L179.685 70.0559H177.788H177.786Z" fill="#1D1D1B"></path>
            <path d="M181.954 62.835C181.954 58.7077 185.212 55.3654 189.42 55.3654C193.628 55.3654 196.886 58.7077 196.886 62.835C196.886 66.9623 193.628 70.3028 189.42 70.3028C185.212 70.3028 181.954 66.9604 181.954 62.835ZM195.441 62.835C195.441 59.4724 192.842 56.7694 189.42 56.7694C185.998 56.7694 183.399 59.4724 183.399 62.835C183.399 66.1976 185.998 68.9006 189.42 68.9006C192.842 68.9006 195.441 66.1976 195.441 62.835Z" fill="#1D1D1B"></path>
            <path d="M215.035 70.0559H213.591V57.8012L208.539 66.2602H208.333L203.281 57.8012V70.0559H201.839V55.6141H203.633L208.438 63.6604L213.241 55.6141H215.036V70.0559H215.035Z" fill="#1D1D1B"></path>
            <path d="M231.122 70.0559H229.678V56.9757H222.254V70.0559H220.812V55.6141H231.124V70.0559H231.122Z" fill="#1D1D1B"></path>
            <path d="M245.167 66.5071H238.321L236.98 70.0559H235.455L241.003 55.6141H242.489L248.036 70.0559H246.509L245.169 66.5071H245.167ZM244.651 65.1455L241.743 57.4087L238.835 65.1455H244.651Z" fill="#1D1D1B"></path>
            <path d="M263.088 55.6123V70.054H261.646V63.3067H253.81V70.054H252.368V55.6123H253.81V61.9469H261.646V55.6123H263.088Z" fill="#1D1D1B"></path>
            <path d="M278.146 58.295L270.104 70.054H268.866V55.6123H270.308V67.3713L278.351 55.6123H279.588V70.054H278.146V58.295Z" fill="#1D1D1B"></path>
            <path d="M294.646 58.295L286.603 70.054H285.366V55.6123H286.808V67.3713L294.851 55.6123H296.088V70.054H294.646V58.295ZM288.047 52.7656H293.409V53.9614H288.047V52.7656Z" fill="#1D1D1B"></path>
        </g>
        <defs>
            <clipPath id="clip0_12_1343">
                <rect width="300" height="71" fill="white"></rect>
            </clipPath>
        </defs>
    </symbol>
    <symbol xmlns="http://www.w3.org/2000/svg" viewBox="0 0 24 24" id="arrowExt">
        <path fill-rule="evenodd" clip-rule="evenodd" d="M13 11L20 4L13 11Z" fill="white"></path>
        <path d="M10.0002 5.75C10.4144 5.75 10.7502 5.41421 10.7502 5C10.7502 4.58579 10.4144 4.25 10.0002 4.25V5.75ZM19.75 14C19.75 13.5858 19.4142 13.25 19 13.25C18.5858 13.25 18.25 13.5858 18.25 14H19.75ZM17.9078 18.782L17.5673 18.1137L17.9078 18.782ZM18.7822 17.908L18.114 17.5675L18.7822 17.908ZM5.21799 17.908L4.54973 18.2485H4.54973L5.21799 17.908ZM6.0918 18.782L6.43229 18.1137L6.0918 18.782ZM6.0918 5.21799L6.43229 5.88624L6.0918 5.21799ZM5.21799 6.09204L5.88624 6.43253L5.21799 6.09204ZM19.25 9C19.25 9.41421 19.5858 9.75 20 9.75C20.4142 9.75 20.75 9.41421 20.75 9H19.25ZM20 4H20.75C20.75 3.58579 20.4142 3.25 20 3.25V4ZM15 3.25C14.5858 3.25 14.25 3.58579 14.25 4C14.25 4.41421 14.5858 4.75 15 4.75V3.25ZM12.4697 10.4697C12.1768 10.7626 12.1768 11.2374 12.4697 11.5303C12.7626 11.8232 13.2374 11.8232 13.5303 11.5303L12.4697 10.4697ZM10.0002 4.25H8.2002V5.75H10.0002V4.25ZM4.25 8.19995V15.8H5.75V8.19995H4.25ZM8.2002 19.75H15.8002V18.25H8.2002V19.75ZM19.75 15.8V14H18.25V15.8H19.75ZM15.8002 19.75C16.3479 19.75 16.8037 19.7506 17.1747 19.7202C17.5546 19.6892 17.9111 19.6221 18.2483 19.4502L17.5673 18.1137C17.4767 18.1599 17.3394 18.2018 17.0525 18.2252C16.7567 18.2494 16.3726 18.25 15.8002 18.25V19.75ZM18.25 15.8C18.25 16.3725 18.2495 16.7567 18.2253 17.0527C18.2019 17.3399 18.1601 17.4771 18.114 17.5675L19.4505 18.2485C19.6224 17.9112 19.6894 17.5544 19.7204 17.1746C19.7506 16.8035 19.75 16.3476 19.75 15.8H18.25ZM18.2483 19.4502C18.7653 19.1868 19.1866 18.7664 19.4505 18.2485L18.114 17.5675C17.9943 17.8024 17.8029 17.9937 17.5673 18.1137L18.2483 19.4502ZM4.25 15.8C4.25 16.3476 4.24942 16.8035 4.27974 17.1747C4.31078 17.5546 4.37788 17.9112 4.54973 18.2485L5.88624 17.5675C5.8401 17.477 5.79822 17.3397 5.77476 17.0525C5.75058 16.7566 5.75 16.3724 5.75 15.8H4.25ZM8.2002 18.25C7.62779 18.25 7.24345 18.2494 6.94746 18.2252C6.66018 18.2018 6.52282 18.1599 6.43229 18.1137L5.7513 19.4502C6.0886 19.6221 6.44538 19.6892 6.82532 19.7202C7.19655 19.7506 7.6525 19.75 8.2002 19.75V18.25ZM4.54973 18.2485C4.81333 18.7659 5.23374 19.1865 5.7513 19.4502L6.43229 18.1137C6.1972 17.9939 6.00614 17.8029 5.88624 17.5675L4.54973 18.2485ZM8.2002 4.25C7.65251 4.25 7.19656 4.24942 6.82534 4.27974C6.44541 4.31077 6.08861 4.37787 5.7513 4.54973L6.43229 5.88624C6.52281 5.84012 6.66016 5.79822 6.94745 5.77476C7.24344 5.75058 7.62777 5.75 8.2002 5.75V4.25ZM5.75 8.19995C5.75 7.62752 5.75058 7.24333 5.77476 6.94747C5.79822 6.66037 5.84009 6.5231 5.88624 6.43253L4.54973 5.75155C4.37789 6.0888 4.31078 6.44544 4.27974 6.82531C4.24942 7.19643 4.25 7.65228 4.25 8.19995H5.75ZM5.7513 4.54973C5.23366 4.81348 4.81329 5.2343 4.54973 5.75155L5.88624 6.43253C6.00618 6.19714 6.19728 6.00598 6.43229 5.88624L5.7513 4.54973ZM20.75 9V4H19.25V9H20.75ZM20 3.25H15V4.75H20V3.25ZM13.5303 11.5303L20.5303 4.53033L19.4697 3.46967L12.4697 10.4697L13.5303 11.5303Z" fill="white"></path>
    </symbol>
    <symbol fill="none" xmlns="http://www.w3.org/2000/svg" viewBox="0 0 48 48" id="upButton">
        <g id="Arrow / Arrow_Up_MD">
            <g id="Vector">
                <path fill-rule="evenodd" clip-rule="evenodd" d="M24 38L24 10L24 38Z" fill="white"></path>
                <path d="M24 38L24 10M24 10L12 22M24 10L36 22" stroke="white" stroke-width="3" stroke-linecap="round" stroke-linejoin="round"></path>
            </g>
        </g>
    </symbol>
    <symbol fill="none" xmlns="http://www.w3.org/2000/svg" viewBox="0 0 24 24" id="callme">
        <g id="Communication / Chat_Conversation_Circle" opacity="0.1">
            <path id="Vector" d="M9.33789 15.9896C10.1586 18.3254 12.3838 20 15.0001 20C16.1808 20 17.2818 19.6589 18.21 19.0699L19.4821 19.494C19.9706 19.6568 20.2152 19.7383 20.3777 19.6804C20.519 19.63 20.6301 19.5187 20.6805 19.3773C20.7384 19.2149 20.6572 18.9706 20.4943 18.4821L20.0703 17.21L20.2123 16.9744C20.7138 16.0977 21.0004 15.0823 21.0004 14C21.0004 10.6863 18.3137 8 15 8L14.7754 8.00414L14.6621 8.01015M9.00006 16.0001C7.81935 16.0001 6.7183 15.659 5.79004 15.0701L4.51807 15.4941C4.02952 15.6569 3.785 15.7383 3.62256 15.6804C3.4812 15.63 3.36981 15.5187 3.3194 15.3773C3.26147 15.2149 3.34301 14.9706 3.50586 14.482L3.92989 13.21C3.34094 12.2817 3 11.1807 3 10C3 6.68629 5.68629 4 9 4C12.3137 4 15 6.68629 15 10C15 13.3137 12.3138 16.0001 9.00006 16.0001Z" stroke="#202020" stroke-width="1.5" stroke-linecap="round" stroke-linejoin="round"></path>
        </g>
    </symbol>
    <symbol xmlns="http://www.w3.org/2000/svg" viewBox="0 0 24 24" id="User">
        <g id="User / User_02">
            <path id="Vector" d="M20 21C20 18.2386 16.4183 16 12 16C7.58172 16 4 18.2386 4 21M12 13C9.23858 13 7 10.7614 7 8C7 5.23858 9.23858 3 12 3C14.7614 3 17 5.23858 17 8C17 10.7614 14.7614 13 12 13Z"   stroke-width="1.5" stroke-linecap="round" stroke-linejoin="round"></path>
        </g>
    </symbol>
    <symbol xmlns="http://www.w3.org/2000/svg" viewBox="0 0 24 24" id="close">
        <g id="Menu / Close_LG">
            <path id="Vector" d="M21 21L3 3M21.0001 3L3 21.0001" stroke-width="2" stroke-linecap="round" stroke-linejoin="round"></path>
        </g>
    </symbol>
    <symbol xmlns="http://www.w3.org/2000/svg" viewBox="0 0 24 24" id="Phone">
        <g id="Communication / Phone">
            <path id="Vector" d="M9.50295 4.25722C9.19922 3.4979 8.46381 3 7.646 3H4.89474C3.8483 3 3 3.84834 3 4.89478C3 13.7895 10.2108 21 19.1055 21C20.1519 21 21 20.1518 21 19.1053L20.9999 16.354C20.9999 15.5362 20.5019 14.8009 19.7426 14.4971L17.1071 13.4429C16.4251 13.1701 15.6485 13.293 15.0842 13.7633L14.4031 14.3307C13.6084 14.9929 12.44 14.94 11.7085 14.2085L9.79136 12.2915C9.05993 11.5601 9.00722 10.3915 9.66943 9.59688L10.2368 8.91597C10.7071 8.35163 10.83 7.57493 10.5572 6.89286L9.50295 4.25722Z"  stroke-width="1.5" stroke-linecap="round" stroke-linejoin="round"></path>
        </g>
    </symbol>
    <symbol xmlns="http://www.w3.org/2000/svg" viewBox="0 0 24 24" id="Mail">
        <g id="Communication / Mail">
            <path id="Vector" d="M4 6L12.2286 12L19.9999 6M21 8.19995V15.8C21 16.9201 21.0002 17.4802 20.7822 17.908C20.5905 18.2844 20.2841 18.5902 19.9078 18.782C19.48 19 18.9203 19 17.8002 19H6.2002C5.08009 19 4.51962 19 4.0918 18.782C3.71547 18.5902 3.40973 18.2844 3.21799 17.908C3 17.4802 3 16.9201 3 15.8V8.19995C3 7.07985 3 6.51986 3.21799 6.09204C3.40973 5.71572 3.71547 5.40973 4.0918 5.21799C4.51962 5 5.08009 5 6.2002 5H17.8002C18.9203 5 19.48 5 19.9078 5.21799C20.2841 5.40973 20.5905 5.71572 20.7822 6.09204C21.0002 6.51986 21 7.07985 21 8.19995Z" stroke-width="1.5" stroke-linecap="round" stroke-linejoin="round"></path>
        </g>
    </symbol>
    <symbol fill="none" xmlns="http://www.w3.org/2000/svg" viewBox="0 0 48 48" id="success">
        <g clip-path="url(#clip0_1012_10283)">
            <path d="M24 45C18.4305 45 13.089 42.7875 9.15076 38.8492C5.21249 34.911 3 29.5695 3 24C3 18.4305 5.21249 13.089 9.15076 9.15076C13.089 5.21249 18.4305 3 24 3C29.5695 3 34.911 5.21249 38.8492 9.15076C42.7875 13.089 45 18.4305 45 24C45 29.5695 42.7875 34.911 38.8492 38.8492C34.911 42.7875 29.5695 45 24 45ZM24 48C30.3652 48 36.4697 45.4714 40.9706 40.9706C45.4714 36.4697 48 30.3652 48 24C48 17.6348 45.4714 11.5303 40.9706 7.02944C36.4697 2.52856 30.3652 0 24 0C17.6348 0 11.5303 2.52856 7.02944 7.02944C2.52856 11.5303 0 17.6348 0 24C0 30.3652 2.52856 36.4697 7.02944 40.9706C11.5303 45.4714 17.6348 48 24 48Z" fill="#238D5C"></path>
            <path d="M32.91 14.9101C32.8886 14.9308 32.8686 14.9529 32.85 14.9761L22.431 28.2511L16.152 21.9691C15.7255 21.5717 15.1613 21.3553 14.5784 21.3656C13.9955 21.3759 13.4394 21.612 13.0271 22.0242C12.6149 22.4365 12.3788 22.9926 12.3685 23.5755C12.3582 24.1584 12.5746 24.7226 12.972 25.1491L20.91 33.0901C21.1238 33.3036 21.3785 33.4718 21.6588 33.5847C21.939 33.6976 22.2391 33.7529 22.5412 33.7473C22.8433 33.7417 23.1412 33.6753 23.4171 33.5521C23.693 33.4289 23.9412 33.2513 24.147 33.0301L36.123 18.0601C36.5308 17.6321 36.7537 17.0608 36.7437 16.4697C36.7336 15.8786 36.4913 15.3153 36.0692 14.9014C35.647 14.4875 35.079 14.2564 34.4878 14.2581C33.8966 14.2597 33.3298 14.4939 32.91 14.9101Z" fill="#238D5C"></path>
        </g>
        <defs>
            <clipPath id="clip0_1012_10283">
                <rect width="48" height="48" fill="white"></rect>
            </clipPath>
        </defs>
    </symbol>
    <symbol  xmlns="http://www.w3.org/2000/svg" viewBox="0 0 24 24" id="Arrow_Up_Right_MD">
        <path fill-rule="evenodd" clip-rule="evenodd" d="M4 20L20 4Z" fill="#202020"></path>
        <path d="M4 20L20 4M20 4H7.2M20 4V16.8"  stroke-width="1.5" stroke-linecap="round" stroke-linejoin="round"></path>
    </symbol>
    <symbol xmlns="http://www.w3.org/2000/svg" viewBox="0 0 24 24" id="Timer">
        <path d="M12 7V12H17M12 21C7.02944 21 3 16.9706 3 12C3 7.02944 7.02944 3 12 3C16.9706 3 21 7.02944 21 12C21 16.9706 16.9706 21 12 21Z" stroke-width="1.5" stroke-linecap="round" stroke-linejoin="round"></path>
    </symbol>
    <symbol  xmlns="http://www.w3.org/2000/svg" viewBox="0 0 24 24" id="Map_Pin">
        <path d="M5 9.9231C5 14.7749 9.24448 18.7872 11.1232 20.3255L11.1239 20.3261C11.3933 20.5466 11.5281 20.657 11.7288 20.7135C11.885 20.7575 12.1148 20.7575 12.271 20.7135C12.472 20.6569 12.6071 20.5464 12.877 20.3255C14.7557 18.7872 19 14.7749 19 9.92306C19 8.08695 18.2625 6.32605 16.9497 5.02772C15.637 3.72939 13.8566 3 12 3C10.1435 3 8.36301 3.72938 7.05025 5.02771C5.7375 6.32604 5 8.08698 5 9.9231Z"  stroke-width="1.5" stroke-linecap="round" stroke-linejoin="round"></path>
        <path d="M10 9C10 10.1046 10.8954 11 12 11C13.1646 11 14 10.1046 14 9C14 7.89543 13.1046 7 12 7C10.8954 7 10 7.89543 10 9Z"  stroke-width="1.5" stroke-linecap="round" stroke-linejoin="round"></path>
    </symbol>
    <symbol xmlns="http://www.w3.org/2000/svg" viewBox="0 0 24 24" id="cart">
        <g id="Interface / Shopping_Cart_02">
            <g id="Vector">
                <path d="M17 20C17 20.5523 17.4477 21 18 21C18.5523 21 19 20.5523 19 20C19 19.4477 18.5523 19 18 19C17.4477 19 17 19.4477 17 20Z" fill="white"></path>
                <path d="M7 20C7 20.5523 7.44772 21 8 21C8.55228 21 9 20.5523 9 20C9 19.4477 8.55228 19 8 19C7.44772 19 7 19.4477 7 20Z" fill="white"></path>
                <path d="M3 3H3.26835C3.74213 3 3.97922 3 4.17246 3.08548C4.34283 3.16084 4.48871 3.2823 4.59375 3.43616C4.71289 3.61066 4.75578 3.84366 4.8418 4.30957L7.00004 16L17.4195 16C17.8739 16 18.1016 16 18.2896 15.9198C18.4554 15.8491 18.5989 15.7348 18.7051 15.5891C18.8255 15.424 18.8763 15.2025 18.9785 14.7597L20.5477 7.95972C20.7022 7.29025 20.7796 6.95561 20.6946 6.69263C20.6201 6.46207 20.4639 6.26634 20.256 6.14192C20.0189 6 19.6758 6 18.9887 6H5.5M18 21C17.4477 21 17 20.5523 17 20C17 19.4477 17.4477 19 18 19C18.5523 19 19 19.4477 19 20C19 20.5523 18.5523 21 18 21ZM8 21C7.44772 21 7 20.5523 7 20C7 19.4477 7.44772 19 8 19C8.55228 19 9 19.4477 9 20C9 20.5523 8.55228 21 8 21Z" stroke-width="1.5" stroke-linecap="round" stroke-linejoin="round"></path>
            </g>
        </g>
    </symbol>
    <svg width="0" height="0" class="hidden">
        <symbol xmlns="http://www.w3.org/2000/svg" viewBox="0 0 24 24" id="sliderChevron">
            <g id="Arrow / Chevron_Down">
                <path id="Vector" d="M19 9L12 16L5 9" stroke-width="1.5" stroke-linecap="round" stroke-linejoin="round"></path>
            </g>
        </symbol>
    </svg>
</svg>

