<svg width="200" height="56" viewBox="0 0 200 56" fill="none" xmlns="http://www.w3.org/2000/svg">
<path d="M43.9913 31.3766C43.8484 31.8064 43.7066 32.2459 43.5669 32.6963C42.9304 34.7435 42.2159 36.5741 41.4375 38.211C34.6789 42.6842 28.4941 44.0115 23.0833 43.5893C27.2751 43.5622 29.8321 42.9311 31.39 42.1819C31.4257 42.1657 31.4603 42.1484 31.495 42.131C31.508 42.1256 31.521 42.1191 31.534 42.1126C32.5018 41.6179 33.1773 40.6338 33.2358 39.4863C33.239 39.4311 33.2401 39.3769 33.2401 39.3206C33.2401 37.9891 32.4109 36.8513 31.2406 36.3987H31.2395C31.05 36.3468 30.8628 36.2937 30.6765 36.2385H30.6755C26.2921 34.9567 22.2897 32.7851 18.8742 29.9303C14.7906 26.5201 11.5494 22.1345 9.50652 17.133C8.5192 14.7134 7.8101 12.1498 7.42578 9.4834C9.92981 18.9788 16.893 26.6619 25.9413 30.1565C29.3536 31.4751 33.0615 32.1983 36.9382 32.1983C39.3665 32.1983 41.7287 31.9157 43.9935 31.3777L43.9913 31.3766Z" fill="url(#paint0_linear_1503_10566)"/>
<path d="M41.4372 38.2119C36.4313 48.7552 28.864 51.256 23.4857 51.8925H23.4846C13.3689 50.3358 2.9414 42.369 0 29.3281C0 29.3281 0.000360863 29.3285 0.00108259 29.3292L0.00433036 29.3325C0.00433036 29.3325 0.00433036 29.3335 0.00541295 29.3357C0.24683 29.6897 6.672 38.974 17.1894 42.4047H17.1904C17.3474 42.4567 17.5066 42.5076 17.6668 42.5563C17.67 42.5574 17.6722 42.5574 17.6754 42.5595C19.3426 43.0694 21.1105 43.4289 22.9704 43.5815C22.9715 43.5815 22.9736 43.5826 22.9736 43.5826C23.0039 43.5858 23.0353 43.588 23.0656 43.5912H23.0819C28.4937 44.0124 34.6775 42.6862 41.4361 38.2129L41.4372 38.2119Z" fill="url(#paint1_linear_1503_10566)"/>
<path d="M50.7707 18.1397C49.162 20.0504 47.4872 22.6963 45.8936 26.363C45.426 27.4348 44.9669 28.5921 44.5177 29.8446C44.4127 30.1391 44.3087 30.4379 44.2048 30.7432C44.1323 30.9521 44.0608 31.1643 43.9915 31.3787C41.7278 31.9156 39.3656 32.1993 36.9363 32.1993C33.0595 32.1993 29.3517 31.4761 25.9394 30.1575C16.8922 26.6618 9.92786 18.9787 7.42383 9.48438C7.46713 9.58073 7.51043 9.67816 7.55374 9.77343C8.04307 10.856 8.60385 11.9007 9.2285 12.8999C9.29887 13.0125 9.37032 13.1251 9.44394 13.2377C9.5273 13.3687 9.61282 13.4986 9.69943 13.6274C9.83259 13.8256 9.96791 14.0215 10.1054 14.2164C10.1953 14.343 10.2862 14.4686 10.3782 14.5931C10.4464 14.6873 10.5168 14.7826 10.5872 14.8746C10.6489 14.9579 10.7127 15.0402 10.7777 15.1225C11.3709 15.8933 12.0075 16.6295 12.6809 17.3299C12.7642 17.4165 12.8487 17.502 12.932 17.5865C13.0241 17.6807 13.1193 17.7738 13.2135 17.8679C13.2904 17.9426 13.3683 18.0195 13.4463 18.0931C13.5621 18.2046 13.679 18.3151 13.797 18.4255C13.8923 18.5132 13.9887 18.5998 14.0839 18.6864C14.1662 18.7611 14.2485 18.8336 14.3318 18.9072C14.5483 19.0978 14.7681 19.284 14.99 19.4669C15.0929 19.5525 15.1968 19.6358 15.3007 19.7181C15.4047 19.8015 15.5086 19.8837 15.6136 19.9649C15.7186 20.0472 15.8247 20.1284 15.9308 20.2074C16.0055 20.2648 16.0824 20.3211 16.1603 20.3774C16.2177 20.4207 16.2762 20.4629 16.3335 20.503C16.4126 20.5625 16.4938 20.6199 16.576 20.6773C16.6843 20.7541 16.7936 20.8299 16.9041 20.9057C17.0145 20.9815 17.1249 21.0562 17.2364 21.1298C17.3479 21.2034 17.4583 21.2759 17.5709 21.3474C17.5764 21.3517 17.5828 21.356 17.5883 21.3593C17.6954 21.4275 17.8015 21.4946 17.9087 21.5617C18.0224 21.6321 18.1371 21.7014 18.2508 21.7707C18.3601 21.8367 18.4706 21.9017 18.581 21.9666C18.673 22.0218 18.7672 22.0749 18.8614 22.1269C18.9794 22.1929 19.0985 22.26 19.2176 22.325C19.3247 22.3845 19.4308 22.4419 19.5391 22.4982C19.9819 22.732 20.4311 22.9539 20.8891 23.1651C20.9876 23.2094 21.0872 23.2549 21.1868 23.2982C21.2983 23.3491 21.4087 23.3978 21.5213 23.4454C22.1611 23.7183 22.8139 23.9683 23.4765 24.1924C23.5804 24.2282 23.6843 24.2628 23.7893 24.2964C23.8943 24.331 24.0004 24.3656 24.1054 24.397C24.2105 24.4306 24.3166 24.462 24.4226 24.4934C24.5277 24.5248 24.6348 24.5573 24.742 24.5854C24.9553 24.646 25.1696 24.7034 25.3862 24.7597C25.5713 24.8073 25.7575 24.8539 25.9437 24.8972C26.0833 24.9286 26.2219 24.9611 26.3626 24.9914C26.472 25.0163 26.5824 25.039 26.6918 25.0607C26.7968 25.0834 26.9039 25.104 27.0111 25.1256C27.0187 25.1256 27.0252 25.1267 27.0328 25.13C27.1399 25.1484 27.246 25.1689 27.3532 25.1873C27.5741 25.2274 27.796 25.2642 28.0201 25.2988C28.2442 25.3324 28.4672 25.3638 28.6935 25.393C28.6978 25.393 28.7032 25.3941 28.7097 25.3941C28.8353 25.4103 28.9619 25.4255 29.0897 25.4385C29.2153 25.4526 29.3419 25.4656 29.4697 25.4785C29.579 25.4905 29.6894 25.5002 29.7988 25.5089C29.9081 25.5186 30.0185 25.5273 30.1279 25.5348C30.2751 25.5468 30.4224 25.5554 30.5696 25.5641C30.6432 25.5684 30.7168 25.5727 30.7915 25.576C31.0416 25.589 31.2906 25.5976 31.5428 25.602C31.7377 25.6074 31.9336 25.6095 32.1307 25.6095C32.3071 25.6095 32.4825 25.6085 32.6579 25.6041C32.7954 25.6009 32.9318 25.5987 33.0693 25.5922C33.0704 25.5933 33.0725 25.5933 33.0736 25.5922C33.1169 25.5955 33.1591 25.5976 33.2024 25.5998C33.3356 25.6074 33.4677 25.6095 33.6019 25.6095C34.2082 25.6095 34.7993 25.5435 35.3676 25.4179C36.4545 25.288 37.522 25.0931 38.5656 24.8377C43.2261 23.6988 47.4093 21.3463 50.7675 18.1397H50.7707Z" fill="url(#paint2_linear_1503_10566)"/>
<path d="M37.7387 24.4872C37.0134 24.9127 36.2187 25.232 35.3722 25.4182C34.8038 25.5438 34.2127 25.6098 33.6065 25.6098C33.4722 25.6098 33.3391 25.6066 33.207 25.6001C33.2016 25.5969 33.1972 25.5925 33.1907 25.5904C33.0338 25.4724 32.879 25.3533 32.7263 25.2342C32.6624 25.1833 32.5996 25.1335 32.5369 25.0826C32.263 24.8629 31.9956 24.6366 31.7336 24.4038C31.6686 24.3465 31.6037 24.2869 31.5387 24.2295C31.4088 24.1115 31.28 23.9925 31.1544 23.8712C31.1013 23.8203 31.0472 23.7684 30.9942 23.7186L30.9249 23.6493C30.8762 23.6016 30.8285 23.554 30.7787 23.5053C30.3457 23.0723 29.93 22.6219 29.5359 22.1542C29.4796 22.086 29.4233 22.02 29.367 21.9518C29.2555 21.8165 29.1462 21.68 29.0379 21.5436C28.9849 21.4754 28.9307 21.4062 28.8788 21.339C28.7694 21.1972 28.6623 21.0532 28.5573 20.9092C28.5064 20.84 28.4577 20.7707 28.4089 20.7014C28.3093 20.5639 28.213 20.4242 28.1188 20.2846C28.1134 20.277 28.1091 20.2705 28.1047 20.264C28.0571 20.1936 28.0095 20.1211 27.9629 20.0507C27.6869 19.6318 27.4259 19.2042 27.1802 18.7668C27.1326 18.6834 27.086 18.599 27.0405 18.5156C27.0156 18.4713 26.9918 18.4258 26.9669 18.3803C26.9236 18.3013 26.8814 18.2201 26.8381 18.1389C26.7688 18.0047 26.6995 17.8704 26.6335 17.7329C26.5739 17.6128 26.5155 17.4937 26.4592 17.3724C26.4072 17.2631 26.3564 17.1527 26.3066 17.0422C26.2925 17.0108 26.2773 16.9805 26.2643 16.948C26.2178 16.8452 26.1734 16.7434 26.1301 16.6395C26.0825 16.5302 26.0359 16.4187 25.9904 16.3072C25.9818 16.2888 25.9742 16.2682 25.9655 16.2476C25.919 16.1339 25.8746 16.0192 25.8302 15.9044C25.8183 15.8741 25.8053 15.8427 25.7945 15.8102C25.7588 15.7117 25.7209 15.6143 25.6851 15.5147C25.5758 15.2159 25.473 14.9128 25.3777 14.6064C25.3355 14.4732 25.2943 14.339 25.2554 14.2037C25.2034 14.0261 25.1525 13.8453 25.1049 13.6656C25.0702 13.5368 25.0367 13.4069 25.0053 13.277C24.9674 13.1243 24.9317 12.9706 24.8981 12.818C24.8635 12.6632 24.8299 12.5094 24.7996 12.3546C24.7704 12.2074 24.7422 12.0602 24.7162 11.9129C24.7151 11.9043 24.713 11.8956 24.7119 11.888C24.6848 11.7321 24.6588 11.5752 24.6339 11.4171C24.6307 11.4009 24.6285 11.3868 24.6264 11.3705C24.608 11.2536 24.5917 11.1367 24.5755 11.0198C24.5668 10.9581 24.5582 10.8953 24.5506 10.8336C24.5376 10.7383 24.5257 10.643 24.5159 10.5467C24.5084 10.4947 24.503 10.4428 24.4986 10.3908C24.4856 10.2706 24.4726 10.1494 24.4629 10.0303C24.4597 9.99458 24.4553 9.95993 24.4542 9.92529C24.4445 9.82136 24.4369 9.71743 24.4293 9.61242C24.425 9.55613 24.4207 9.50092 24.4174 9.44679C24.4077 9.29522 24.4001 9.14474 24.3925 8.99318C24.3871 8.84054 24.3806 8.68681 24.3785 8.53308C24.3741 8.36961 24.373 8.20722 24.373 8.04267C24.373 7.90085 24.3741 7.76119 24.3774 7.61937V7.61613C24.3806 7.47647 24.3828 7.33574 24.3893 7.19608C24.3936 7.08458 24.399 6.97199 24.4055 6.86156C24.4088 6.80419 24.4109 6.74789 24.4153 6.68943C24.4207 6.58009 24.4283 6.46858 24.4369 6.35924C24.4488 6.22392 24.4597 6.08751 24.4716 5.95219C24.4726 5.94786 24.4726 5.94244 24.4726 5.93811C24.4867 5.80279 24.4997 5.66638 24.5159 5.53106C24.5333 5.37842 24.5517 5.22469 24.5733 5.07204C24.5896 4.95187 24.6069 4.83279 24.6253 4.71262C24.6285 4.68664 24.6329 4.66174 24.6372 4.63792C24.6545 4.52642 24.6718 4.41599 24.6924 4.30557C24.7184 4.14859 24.7476 3.9927 24.7779 3.83789C24.7704 4.05982 24.7682 4.28283 24.7682 4.50693C24.7682 7.62912 25.4221 10.5976 26.601 13.2846C28.7857 18.2688 32.775 22.282 37.7419 24.4959L37.7387 24.4872Z" fill="url(#paint3_linear_1503_10566)"/>
<path d="M41.192 20.4544C40.5522 22.0718 39.4089 23.4348 37.9561 24.3539C37.9518 24.355 37.9507 24.3572 37.9507 24.3572C37.8803 24.4005 37.8089 24.4438 37.7374 24.4871C32.7705 22.2721 28.7812 18.26 26.5965 13.2758C25.4186 10.5888 24.7637 7.62033 24.7637 4.49814C24.7637 4.27405 24.7669 4.05211 24.7734 3.8291C25.4554 6.54099 26.6593 9.05801 28.2594 11.2892C28.9998 12.3231 29.8248 13.2963 30.7222 14.2003C33.5835 17.0789 37.1821 19.2528 41.1108 20.4295C41.1378 20.4382 41.1638 20.4468 41.192 20.4544Z" fill="url(#paint4_linear_1503_10566)"/>
<path d="M59.5709 13.2647C59.5136 13.2398 57.7933 12.482 55.3662 12.3575C52.4616 12.2113 48.5404 12.9756 45.2472 17.0007C40.028 23.3815 38.074 24.3027 37.957 24.3525C39.4099 23.4323 40.5531 22.0694 41.1929 20.4531C41.1961 20.4444 41.1983 20.4368 41.2016 20.4303C41.2806 20.2279 41.3531 20.0233 41.4148 19.8143C41.4159 19.8111 41.4181 19.81 41.4181 19.8068C42.0384 18.0854 42.8579 16.4572 43.8463 14.9513C44.262 14.3159 44.7113 13.7009 45.1866 13.1099C45.1876 13.1066 45.1898 13.1055 45.192 13.1044C45.2483 13.0341 45.3056 12.9626 45.3619 12.8923C45.3782 12.8739 45.3955 12.8533 45.4128 12.8327C45.4377 12.8035 45.4605 12.7753 45.4864 12.7461C45.4908 12.7418 45.494 12.7374 45.4983 12.7331C45.5016 12.7299 45.5027 12.7277 45.5038 12.7255H45.5048C45.5048 12.7255 45.5081 12.7212 45.5092 12.7201C46.7336 11.3182 48.3856 10.2962 50.2607 9.861C50.2986 9.85126 50.3343 9.84368 50.3722 9.8361C50.5508 9.79605 50.7316 9.76141 50.9145 9.73326C51.3725 9.66073 51.8402 9.625 52.3176 9.625C53.0711 9.625 53.8051 9.71702 54.5055 9.89023C55.1453 10.0494 55.7591 10.2767 56.3362 10.5647C57.6158 11.2002 58.7211 12.1279 59.5688 13.2636L59.5709 13.2647Z" fill="url(#paint5_linear_1503_10566)"/>
<path d="M59.5713 13.2665C59.5713 13.2665 56.4134 12.7458 52.489 16.3378C52.489 16.3378 52.4886 16.3389 52.4879 16.3411C51.9293 16.8521 51.3555 17.4453 50.7742 18.1371C50.7731 18.1382 50.7709 18.1382 50.7709 18.1403C47.4127 21.347 43.2296 23.6994 38.5691 24.8383C37.5254 25.0938 36.458 25.2887 35.3711 25.4186C36.2177 25.2324 37.0123 24.913 37.7376 24.4876C37.8102 24.4443 37.8805 24.401 37.9509 24.3576C37.9509 24.3576 37.952 24.3566 37.9563 24.3544C38.0732 24.3035 40.0273 23.3822 45.2465 17.0025C48.5397 12.9775 52.4598 12.2132 55.3654 12.3593C57.7926 12.4838 59.5118 13.2416 59.5702 13.2665H59.5713Z" fill="url(#paint6_linear_1503_10566)"/>
<path d="M59.5714 13.2658C57.6596 13.7973 56.0227 14.9817 54.9119 16.5655C54.0729 17.7629 53.5371 19.1886 53.4147 20.7313C53.3974 20.9532 53.3887 21.1784 53.3887 21.4068C53.3887 21.5487 53.392 21.6872 53.3985 21.8258C53.3985 21.8431 53.3996 21.8594 53.4017 21.8767C53.431 22.4212 53.445 22.9701 53.445 23.5211C53.445 23.8297 53.4396 24.1382 53.431 24.4424C53.4223 24.7336 53.4104 25.0238 53.3931 25.3128C53.3509 26.0533 53.2848 26.7873 53.1906 27.5116C53.1852 27.5635 53.1776 27.6166 53.1701 27.6685C53.117 28.0659 53.0564 28.4599 52.9882 28.8507C52.9221 29.2394 52.8464 29.6248 52.7663 30.0069C52.3473 31.9697 51.7454 33.8534 50.9789 35.6386C49.7404 38.5172 48.0765 41.1338 46.0737 43.3942C41.2811 48.8061 34.5484 52.173 27.0937 52.173C25.904 52.173 24.6969 52.0788 23.4844 51.8915C28.8627 51.2549 36.43 48.7541 41.4359 38.2108C42.2143 36.575 42.9288 34.7443 43.5653 32.6961C43.705 32.2457 43.8468 31.8062 43.9897 31.3764C44.059 31.1631 44.1315 30.951 44.203 30.7409C44.3069 30.4367 44.4108 30.1379 44.5158 29.8424C44.9651 28.5909 45.4241 27.4325 45.8918 26.3608C47.4854 22.6951 49.1612 20.0482 50.7689 18.1374C50.7689 18.1363 50.77 18.1363 50.7721 18.1342C51.3546 17.4424 51.9272 16.8491 52.4859 16.3382C52.4859 16.3382 52.4862 16.3371 52.4869 16.3349C56.4113 12.7429 59.5692 13.2636 59.5692 13.2636L59.5714 13.2658Z" fill="url(#paint7_linear_1503_10566)"/>
<path d="M31.3892 42.1814C29.8313 42.9306 27.2743 43.5617 23.0825 43.5888H23.0662C23.0359 43.5855 23.0045 43.5834 22.9742 43.5801C22.9742 43.5801 22.9731 43.579 22.971 43.579C17.7973 42.3027 13.8631 37.8435 11.3905 32.8073C11.1361 32.2876 10.8968 31.7637 10.6738 31.2354C11.1253 31.8416 11.5951 32.4381 12.0844 33.0184H12.0855C16.588 38.375 22.6126 42.4445 29.7545 42.4445L30.1788 42.4369C30.377 42.4337 30.5762 42.4142 30.771 42.3774C30.836 42.3654 30.8847 42.3557 30.8869 42.3557C31.0211 42.3221 31.282 42.2258 31.282 42.2258C31.3177 42.2117 31.3524 42.1966 31.387 42.1814H31.3892Z" fill="url(#paint8_linear_1503_10566)"/>
<path d="M70.7205 35.6495V43.8404C70.7205 45.1114 70.8407 46.077 71.0832 46.7385H65.8532C66.0102 46.0034 66.0892 45.1633 66.0892 44.2182V26.6078C66.0892 25.9257 65.968 25.0434 65.7266 23.9619H70.9717C70.8039 24.697 70.7195 25.4267 70.7195 26.1509V33.5223H73.1293V26.1509C73.1293 25.4472 73.0449 24.7176 72.8771 23.9619H78.1222C77.8808 25.0434 77.7595 25.9257 77.7595 26.6078V44.2182C77.7595 45.1742 77.8386 46.0143 77.9955 46.7385H72.7818C73.0124 46.077 73.1282 45.1114 73.1282 43.8404V35.6495H70.7184H70.7205Z" fill="#1D1D1B"/>
<path d="M85.0765 25.2058C85.1188 24.9016 85.161 24.487 85.2021 23.9619H91.1401C91.1607 24.487 91.1975 24.9016 91.2506 25.2058C92.0279 31.2856 92.9513 37.9176 94.0231 45.0995C94.0859 45.5195 94.1909 46.0662 94.3381 46.7374H89.0616C89.146 46.2124 89.1666 45.7555 89.1244 45.3669C88.8938 43.0036 88.6881 41.0463 88.5105 39.4917H85.344C85.1025 41.0246 84.8719 42.9938 84.6511 45.3983C84.6294 45.7447 84.6294 46.1907 84.6511 46.7374H81.4531C81.6523 46.1701 81.7844 45.7133 81.8472 45.3669C82.7923 40.61 83.8684 33.8893 85.0765 25.2047V25.2058ZM86.9981 26.7333L85.4706 37.5387H88.3059L86.9981 26.7333Z" fill="#1D1D1B"/>
<path d="M110.019 44.2971C110.019 44.938 110.15 45.6049 110.413 46.2977L110.571 46.7383H105.451V37.9022C105.451 36.8002 104.979 36.248 104.034 36.248H102.68V44.139C102.68 44.9585 102.8 45.6774 103.043 46.2966L103.216 46.7372H97.7975L97.8765 46.3432C97.9923 45.6925 98.0497 44.9466 98.0497 44.1066V27.032C98.0497 26.4019 97.9501 25.525 97.7509 24.4013L97.6719 24.0234H106.099C107.517 24.0234 108.519 24.2443 109.107 24.6849C109.716 25.1569 110.021 25.9396 110.021 27.032V32.0249C110.021 33.023 109.69 33.7581 109.028 34.2301C108.692 34.4823 108.183 34.7237 107.501 34.9543C108.183 35.1124 108.693 35.3008 109.028 35.5216C109.69 35.9417 110.021 36.6085 110.021 37.5222V44.2949L110.019 44.2971ZM105.483 27.6317C105.483 27.3275 105.357 27.0644 105.105 26.8436C104.853 26.613 104.501 26.4972 104.049 26.4972H102.71V33.8533H103.703C104.889 33.8533 105.483 33.3077 105.483 32.2154V27.6317Z" fill="#1D1D1B"/>
<path d="M114.263 26.4508C114.263 25.9052 114.142 25.0748 113.9 23.9619H122.548C123.766 23.9619 124.643 24.1719 125.179 24.592C125.756 25.0229 126.045 25.7471 126.045 26.7658V31.3657C126.045 32.3639 125.861 33.0567 125.494 33.4454C125.378 33.571 124.875 33.8817 123.981 34.3743C125.441 35.1516 126.17 35.9754 126.17 36.8469V43.6986C126.17 44.8851 125.907 45.6938 125.382 46.1247C124.889 46.5339 123.997 46.7385 122.705 46.7385H114.026C114.183 46.0143 114.262 45.1796 114.262 44.2345V26.4508H114.263ZM120.265 33.7907C120.58 33.7907 120.838 33.6435 121.037 33.3501C121.215 33.0773 121.304 32.746 121.304 32.3574V27.096C121.304 26.7604 121.205 26.4822 121.005 26.2613C120.795 26.0405 120.517 25.9301 120.171 25.9301H118.894V33.7897H120.265V33.7907ZM118.894 35.6495V44.7541H120.107C120.442 44.7541 120.726 44.6177 120.958 44.3449C121.188 44.0829 121.304 43.7625 121.304 43.3836V36.7841C121.304 36.0285 120.936 35.6495 120.202 35.6495H118.894Z" fill="#1D1D1B"/>
<path d="M134.495 44.1868C134.495 45.0269 134.615 45.8779 134.858 46.7385H129.628C129.785 46.0143 129.864 45.1742 129.864 44.2182V26.6078C129.864 25.7677 129.742 24.8854 129.501 23.9619H134.778C134.588 25.1484 134.494 26.0307 134.494 26.6078V44.1868H134.495Z" fill="#1D1D1B"/>
<path d="M147.496 24.0254H150.584L150.536 24.3881C150.431 25.239 150.379 25.7846 150.379 26.026V46.7392H145.387L141.307 32.5475C141.318 36.958 141.359 40.8012 141.433 44.0782C141.453 45.0655 141.517 45.8212 141.622 46.3462L141.701 46.7403H138.378L138.457 46.3625C138.53 45.8894 138.567 45.1391 138.567 44.1096V27.035C138.567 26.4049 138.468 25.528 138.268 24.4043L138.189 24.0265H143.545L147.83 38.675C147.819 36.2803 147.808 34.2223 147.799 32.501C147.767 29.7187 147.751 27.5709 147.751 26.0585C147.751 25.659 147.688 25.108 147.561 24.4043L147.499 24.0265L147.496 24.0254Z" fill="#1D1D1B"/>
<path d="M165.366 34.6254V46.4549C164 46.6443 162.079 46.7385 159.601 46.7385C157.123 46.7385 155.647 46.5339 154.954 46.1247C154.261 45.7155 153.915 44.8169 153.915 43.4312V26.8611C153.915 25.6432 154.361 24.8453 155.254 24.4664C156.01 24.1308 157.528 23.9619 159.806 23.9619C162.631 23.9619 164.464 24.0355 165.304 24.1828C165.241 24.3083 165.21 25.2437 165.21 26.9867V32.2318H161.162V27.2075C161.162 26.7453 161.077 26.4302 160.91 26.2624C160.72 26.0946 160.364 26.0102 159.839 26.0102C159.314 26.0102 158.936 26.0946 158.736 26.2624C158.537 26.4519 158.437 26.7875 158.437 27.2703V43.2742C158.437 44.2085 158.836 44.6762 159.634 44.6762C160.054 44.6762 160.353 44.5712 160.532 44.3611C160.7 44.1511 160.784 43.7993 160.784 43.3056V36.7841H159.572V34.6265H165.368L165.366 34.6254Z" fill="#1D1D1B"/>
<path d="M168.823 46.7385C168.98 46.0034 169.059 45.1633 169.059 44.2182V26.86C169.059 26.1985 168.938 25.2329 168.696 23.9619H177.375V26.073C177.123 25.968 176.876 25.916 176.635 25.916H173.689V33.5872H175.296C175.884 33.5872 176.403 33.5244 176.855 33.3978V35.7762C176.182 35.6182 175.674 35.5402 175.327 35.5402H173.689V44.5181C174.581 44.5181 175.627 44.4867 176.823 44.4239C176.928 44.4239 177.085 44.4131 177.296 44.3925C177.506 44.372 177.663 44.3611 177.768 44.3611V46.7396H168.822L168.823 46.7385Z" fill="#1D1D1B"/>
<path d="M193.449 44.2971C193.449 44.938 193.58 45.6049 193.844 46.2977L194.002 46.7383H188.882V37.9022C188.882 36.8002 188.41 36.248 187.465 36.248H186.111V44.139C186.111 44.9585 186.231 45.6774 186.473 46.2966L186.646 46.7372H181.228L181.307 46.3432C181.423 45.6925 181.48 44.9466 181.48 44.1066V27.032C181.48 26.4019 181.381 25.525 181.182 24.4013L181.103 24.0234H189.529C190.948 24.0234 191.95 24.2443 192.538 24.6849C193.146 25.1569 193.452 25.9396 193.452 27.032V32.0249C193.452 33.023 193.12 33.7581 192.459 34.2301C192.122 34.4823 191.613 34.7237 190.931 34.9543C191.613 35.1124 192.123 35.3008 192.459 35.5216C193.12 35.9417 193.452 36.6085 193.452 37.5222V44.2949L193.449 44.2971ZM188.913 27.6317C188.913 27.3275 188.788 27.0644 188.536 26.8436C188.283 26.613 187.932 26.4972 187.48 26.4972H186.141V33.8533H187.134C188.32 33.8533 188.913 33.3077 188.913 32.2154V27.6317Z" fill="#1D1D1B"/>
<defs>
<linearGradient id="paint0_linear_1503_10566" x1="7" y1="10" x2="55.5" y2="38.5" gradientUnits="userSpaceOnUse">
<stop stop-color="#29A55C"/>
<stop offset="0.09" stop-color="#29A55C"/>
<stop offset="0.42" stop-color="#1B9051"/>
<stop offset="0.99" stop-color="#00653A"/>
<stop offset="1" stop-color="#00653A"/>
</linearGradient>
<linearGradient id="paint1_linear_1503_10566" x1="1.97159" y1="38.6783" x2="44" y2="37.5" gradientUnits="userSpaceOnUse">
<stop stop-color="#29A55C"/>
<stop offset="0.09" stop-color="#29A55C"/>
<stop offset="0.42" stop-color="#1B9051"/>
<stop offset="0.99" stop-color="#00653A"/>
<stop offset="1" stop-color="#00653A"/>
</linearGradient>
<linearGradient id="paint2_linear_1503_10566" x1="6.5" y1="8.5" x2="49" y2="37.5" gradientUnits="userSpaceOnUse">
<stop stop-color="#00653A"/>
<stop offset="0.00999999" stop-color="#00653A"/>
<stop offset="0.58" stop-color="#1B9051"/>
<stop offset="0.891253" stop-color="#29A55C"/>
<stop offset="1" stop-color="#29A55C"/>
</linearGradient>
<linearGradient id="paint3_linear_1503_10566" x1="31.1689" y1="4.47399" x2="31.1689" y2="24.9737" gradientUnits="userSpaceOnUse">
<stop stop-color="#29A55C"/>
<stop offset="0.09" stop-color="#29A55C"/>
<stop offset="0.42" stop-color="#1B9051"/>
<stop offset="0.99" stop-color="#00653A"/>
<stop offset="1" stop-color="#00653A"/>
</linearGradient>
<linearGradient id="paint4_linear_1503_10566" x1="25.5453" y1="12.3893" x2="40.6842" y2="12.3893" gradientUnits="userSpaceOnUse">
<stop stop-color="#29A55C"/>
<stop offset="0.09" stop-color="#29A55C"/>
<stop offset="0.42" stop-color="#1B9051"/>
<stop offset="0.99" stop-color="#00653A"/>
<stop offset="1" stop-color="#00653A"/>
</linearGradient>
<linearGradient id="paint5_linear_1503_10566" x1="38.9854" y1="15.7278" x2="58.9029" y2="15.7278" gradientUnits="userSpaceOnUse">
<stop stop-color="#00653A"/>
<stop offset="0.01" stop-color="#00653A"/>
<stop offset="0.58" stop-color="#1B9051"/>
<stop offset="0.91" stop-color="#29A55C"/>
<stop offset="1" stop-color="#29A55C"/>
</linearGradient>
<linearGradient id="paint6_linear_1503_10566" x1="51.5" y1="6.5" x2="51.5" y2="29" gradientUnits="userSpaceOnUse">
<stop stop-color="#00653A"/>
<stop offset="0.01" stop-color="#00653A"/>
<stop offset="0.58" stop-color="#1B9051"/>
<stop offset="0.91" stop-color="#29A55C"/>
<stop offset="1" stop-color="#29A55C"/>
</linearGradient>
<linearGradient id="paint7_linear_1503_10566" x1="25.2014" y1="29.3714" x2="58.4561" y2="29.3714" gradientUnits="userSpaceOnUse">
<stop stop-color="#00653A"/>
<stop offset="0.01" stop-color="#00653A"/>
<stop offset="0.58" stop-color="#1B9051"/>
<stop offset="0.91" stop-color="#29A55C"/>
<stop offset="1" stop-color="#29A55C"/>
</linearGradient>
<linearGradient id="paint8_linear_1503_10566" x1="11.6595" y1="36.3544" x2="30.7489" y2="36.3544" gradientUnits="userSpaceOnUse">
<stop stop-color="#00653A"/>
<stop offset="0.01" stop-color="#00653A"/>
<stop offset="0.58" stop-color="#1B9051"/>
<stop offset="0.91" stop-color="#29A55C"/>
<stop offset="1" stop-color="#29A55C"/>
</linearGradient>
</defs>
</svg>
